<?xml version="1.0" encoding="utf-8"?>
<!-- Generator: Adobe Illustrator 22.1.0, SVG Export Plug-In . SVG Version: 6.00 Build 0)  -->
<svg version="1.1" id="Lager_1" xmlns="http://www.w3.org/2000/svg" xmlns:xlink="http://www.w3.org/1999/xlink" x="0px" y="0px"
	 viewBox="0 0 91.4 91.2" style="enable-background:new 0 0 406.9 91.2;" xml:space="preserve">
<style type="text/css">
	.st0{fill:#FF6041;}
	.st1{fill:#FFFFFF;}
</style>
<g>
	<circle class="st0" cx="45.2" cy="46" r="10.4"/>
	<path class="st0" d="M24.9,84.1c-0.7,0.7-0.5,1.8,0.4,2.3c6.4,3.2,13.4,4.8,20.3,4.8c11.9,0,23.6-4.6,32.4-13.3
		C94.6,61.3,96,35,81.1,16.8l-3.7,3l0,0l3.7-3c-1-1.2-2-2.3-3.1-3.4l-2.5-2.5c-0.6-0.6-1.5-0.6-2,0l-12,11.8
		c-0.5,0.5-1.2,0.5-1.8,0.2c-5.7-3.6-12.5-5-19.4-3.7c-3.7,0.6-7.2,2.1-10.3,4.2C17.2,32,14.5,48.6,22,60.6c0.4,0.6,0.3,1.3-0.2,1.8
		l-3.5,3.5c-0.6,0.6-1.7,0.5-2.2-0.2c-9.6-14-8-32.9,4.3-45.2c10.3-10.3,25.8-13.2,39-7.7c0.5,0.2,1.1,0.1,1.6-0.3L66.5,7
		c0.7-0.7,0.5-1.8-0.4-2.3C48.7-4,27.3-0.6,13.4,13.3C-3.2,30-4.5,56.2,10.3,74.4l3.7-3l0,0l-3.7,3c1,1.2,2,2.3,3.1,3.4l2.5,2.5
		c0.6,0.6,1.5,0.6,2,0l10.9-10.9c0.5-0.5,1.2-0.5,1.8-0.2c5.7,3.6,12.6,5,19.6,3.7c3.8-0.7,7.3-2.2,10.5-4.4
		c7.6-5.3,11.8-13.6,11.8-22.6c0-5.2-1.5-10.2-4.2-14.5c-0.4-0.6-0.3-1.3,0.2-1.8l4.4-4.4c0.6-0.6,1.7-0.5,2.2,0.2
		c9.6,14,7.9,32.9-4.3,45.2C60.6,81.1,45,84,31.9,78.4c-0.5-0.2-1.1-0.1-1.6,0.3L24.9,84.1z M62.6,46.1c0,4.6-1.8,9-5.1,12.3
		s-7.6,5.1-12.3,5.1c-4.6,0-9-1.8-12.3-5.1c-6.8-6.8-6.8-17.8,0-24.5c3.3-3.3,7.6-5.1,12.3-5.1c4.6,0,9,1.8,12.3,5.1
		C60.8,37.1,62.6,41.4,62.6,46.1z"/>
</g>
</svg>
